<mxfile host="app.diagrams.net" modified="2024-02-20T07:35:56.859Z" agent="Mozilla/5.0 (Macintosh; Intel Mac OS X 10_15_7) AppleWebKit/537.36 (KHTML, like Gecko) Chrome/121.0.0.0 Safari/537.36 Edg/121.0.0.0" etag="hwjfwYNMMShz9pmi9HN1" version="23.1.5" type="device">
  <diagram id="hcy9IMlFJVa7Y_0WYdtW" name="Page-1">
    <mxGraphModel dx="214" dy="418" grid="1" gridSize="1" guides="1" tooltips="1" connect="1" arrows="1" fold="1" page="1" pageScale="1" pageWidth="200" pageHeight="200" math="0" shadow="0">
      <root>
        <mxCell id="0" />
        <mxCell id="1" parent="0" />
        <mxCell id="3" value="" style="aspect=fixed;html=1;points=[];align=center;image;fontSize=12;image=img/lib/azure2/general/Folder_Blank.svg;" parent="1" vertex="1">
          <mxGeometry y="20" width="193.5965610243846" height="157.12184662848608" as="geometry" />
        </mxCell>
        <mxCell id="h4n4F0OMfRnzB-JA_NQo-18" value="" style="image;aspect=fixed;html=1;points=[];align=center;fontSize=12;image=img/lib/azure2/general/Files.svg;" parent="1" vertex="1">
          <mxGeometry x="7" y="61.72" width="84.37" height="92.28" as="geometry" />
        </mxCell>
        <mxCell id="h4n4F0OMfRnzB-JA_NQo-10" value="" style="html=1;verticalLabelPosition=bottom;align=center;labelBackgroundColor=#ffffff;verticalAlign=top;strokeWidth=5;strokeColor=#0080F0;shadow=0;dashed=0;shape=mxgraph.ios7.icons.forward;" parent="1" vertex="1">
          <mxGeometry x="137.1941791466516" y="149.3846153846154" width="60.175820853348405" height="44.61538461538461" as="geometry" />
        </mxCell>
        <mxCell id="h4n4F0OMfRnzB-JA_NQo-12" value="" style="curved=1;endArrow=classic;html=1;rounded=0;strokeWidth=3;" parent="1" edge="1" source="h4n4F0OMfRnzB-JA_NQo-21">
          <mxGeometry width="50" height="50" relative="1" as="geometry">
            <mxPoint x="105" y="163" as="sourcePoint" />
            <mxPoint x="133" y="170" as="targetPoint" />
            <Array as="points">
              <mxPoint x="110.42458321559762" y="169.46153846153845" />
            </Array>
          </mxGeometry>
        </mxCell>
        <mxCell id="h4n4F0OMfRnzB-JA_NQo-15" value="&lt;p style=&quot;line-height: 110%; font-size: 50px;&quot;&gt;&lt;font style=&quot;font-size: 50px;&quot;&gt;E&lt;/font&gt;&lt;font style=&quot;font-size: 50px;&quot;&gt;N&lt;/font&gt;&lt;font style=&quot;font-size: 50px;&quot;&gt;&lt;br style=&quot;font-size: 50px;&quot;&gt;TR&lt;/font&gt;&lt;/p&gt;" style="text;html=1;align=center;verticalAlign=middle;whiteSpace=wrap;rounded=0;spacing=0;fontSize=50;fontStyle=1" parent="1" vertex="1">
          <mxGeometry x="88" y="50" width="111.54" height="84.7" as="geometry" />
        </mxCell>
        <mxCell id="h4n4F0OMfRnzB-JA_NQo-21" value="" style="shadow=0;dashed=0;html=1;strokeColor=none;fillColor=#000000;labelPosition=center;verticalLabelPosition=bottom;verticalAlign=top;align=center;outlineConnect=0;shape=mxgraph.veeam.magnifying_glass;pointerEvents=1;" parent="1" vertex="1">
          <mxGeometry x="46" y="105" width="55.2" height="54.4" as="geometry" />
        </mxCell>
      </root>
    </mxGraphModel>
  </diagram>
</mxfile>
